<svg width="22" height="22" viewBox="0 0 22 22" fill="none" xmlns="http://www.w3.org/2000/svg"><path fill-rule="evenodd" clip-rule="evenodd" d="M17.62 17.61c.618 0 1.134.216 1.546.646.412.43.618.955.618 1.575s-.206 1.136-.618 1.55c-.412.413-.936.619-1.572.619-.635 0-1.159-.206-1.57-.62-.413-.413-.62-.938-.62-1.575s.207-1.162.62-1.575c.411-.413.944-.62 1.596-.62zM0 0h3.606l1.03 2.169h16.282c.309.034.566.155.772.362a1.052 1.052 0 0 1 .155 1.29l-3.916 7.127a2.45 2.45 0 0 1-.798.827c-.327.206-.696.31-1.108.31H7.83l-.979 1.807-.052.155c0 .172.086.258.258.258h12.726v2.22H6.594c-.618-.034-1.133-.257-1.545-.67-.412-.414-.619-.93-.619-1.55 0-.379.086-.723.258-1.033l1.494-2.737L2.215 2.17H0V0zm6.595 17.61c.618 0 1.142.216 1.571.646.43.43.644.955.644 1.575s-.215 1.136-.644 1.55c-.43.413-.953.619-1.571.619-.619 0-1.134-.206-1.546-.62-.412-.413-.618-.938-.618-1.575s.206-1.162.618-1.575c.412-.413.927-.62 1.546-.62zM16.4 9.871l3.067-5.481h-13.8l2.556 5.48H16.4z" fill="currentColor"></path></svg>